:SAMPLES-PER-SECOND 30
:FRAME-RANGE 1-668
:FULLY-SPECIFIED
:DEGREES
209
root  -0.229479 40.025 26.6609 -171.226 -4.66125 -179.51
RightUpLeg  -9.13522 -3.17292 -5.94773
RightLeg  8.57193 3.15396 -0.355895
RightFoot  -6.61103 -0.395952 8.46382
RightToes  5.38607e-012 1.2921e-014 -6.02303e-014
Spine  -9.35303 -1.73633 0.621315
Spine1  12.2248 0.0769906 -7.00027
HEad  10.8818 -49.0545 5.93387
LeftShoulder1  1.37172 -2.25092 -18.3611
LeftArm  -10.6194 -5.73889 -21.6674
LeftForeArm  19.9262 -0.197545 -9.15277
LeftHand  0.0310996 6.42885 5.57761
RightShoulder  1.9502 5.61252 15.1623
RightArm  -42.9703 34.2681 21.965
RightForeArm  74.847 1.87563 -3.38558
RightHand  -0.84877 -3.64027 -53.5807
LeftUpLeg  -11.4817 1.28823 0.156699
LeftLeg  9.85575 1.82793 2.1621
LeftFoot  -5.86296 0.118844 -1.69915
LeftToes  -6.11857e-011 5.00151e-011 -2.22593e-011
210
root  -0.202444 40.0188 26.6847 -171.296 -4.57426 -179.444
RightUpLeg  -9.1824 -3.16885 -5.86381
RightLeg  8.69302 3.234 -0.287567
RightFoot  -6.64108 -0.391724 8.382
RightToes  5.38607e-012 1.2921e-014 -6.02303e-014
Spine  -9.39515 -1.74611 0.392111
Spine1  12.308 0.0662824 -6.91012
HEad  10.8752 -48.8894 6.01324
LeftShoulder1  1.36194 -2.18238 -18.5013
LeftArm  -10.5304 -5.40184 -21.758
LeftForeArm  19.7626 -0.17758 -9.1633
LeftHand  0.0275117 6.53994 5.49627
RightShoulder  1.95284 5.62518 15.1609
RightArm  -42.8023 34.6211 23.0776
RightForeArm  74.468 2.35559 -3.29103
RightHand  -0.94251 -3.46122 -53.8025
LeftUpLeg  -11.5496 1.31399 0.260146
LeftLeg  10.074 1.87099 2.19726
LeftFoot  -5.934 0.125408 -1.80208
LeftToes  -6.11857e-011 5.00151e-011 -2.22593e-011
211
root  -0.1801 40.0161 26.713 -171.345 -4.49228 -179.385
RightUpLeg  -9.24534 -2.9934 -5.7605
RightLeg  8.77674 3.16331 -0.309569
RightFoot  -6.62211 -0.389997 8.35163
RightToes  5.38607e-012 1.2921e-014 -6.02303e-014
Spine  -9.45008 -1.68424 0.279059
Spine1  12.4446 0.155807 -6.93158
HEad  10.6288 -48.778 6.25325
LeftShoulder1  1.34925 -2.11823 -18.5654
LeftArm  -10.0588 -5.29181 -21.906
LeftForeArm  19.5261 -0.173029 -9.33367
LeftHand  0.0273034 6.52414 5.49432
RightShoulder  1.97134 5.6204 15.4015
RightArm  -42.5362 34.288 24.2998
RightForeArm  73.4731 3.84226 -2.84635
RightHand  -0.574737 -4.16182 -52.4557
LeftUpLeg  -11.5968 1.40251 0.361184
LeftLeg  10.19 1.8986 2.18367
LeftFoot  -5.9662 0.122161 -1.75395
LeftToes  -6.11857e-011 5.00151e-011 -2.22593e-011
212
root  -0.164534 40.0128 26.7401 -171.387 -4.54044 -179.348
RightUpLeg  -9.27078 -2.90716 -5.70666
RightLeg  8.84673 3.03244 -0.326762
RightFoot  -6.64084 -0.388457 8.34723
RightToes  5.38607e-012 1.2921e-014 -6.02303e-014
Spine  -9.54889 -1.63759 0.145886
Spine1  12.6476 0.213297 -6.88013
HEad  10.4001 -48.7041 6.41416
LeftShoulder1  1.32834 -2.0429 -18.5211
LeftArm  -10.0904 -5.17444 -22.3161
LeftForeArm  20.1726 -0.200524 -9.31001
LeftHand  0.0245668 6.34457 5.23758
RightShoulder  1.99972 5.5156 16.0408
RightArm  -42.4297 33.319 25.3722
RightForeArm  72.4118 6.00936 -2.26152
RightHand  0.121232 -5.60552 -50.1331
LeftUpLeg  -11.6355 1.42276 0.420097
LeftLeg  10.2454 1.81135 2.17688
LeftFoot  -5.96337 0.123099 -1.77225
LeftToes  -6.11857e-011 5.00151e-011 -2.22593e-011
213
root  -0.155471 40.0055 26.7727 -171.429 -4.71431 -179.362
RightUpLeg  -9.30452 -2.93052 -5.70676
RightLeg  8.98381 2.85839 -0.323673
RightFoot  -6.71601 -0.382142 8.31447
RightToes  5.38607e-012 1.2921e-014 -6.02303e-014
Spine  -9.57336 -1.68183 -0.0964717
Spine1  12.7547 0.127969 -6.64896
HEad  10.2192 -48.3826 6.38423
LeftShoulder1  1.29362 -1.88756 -18.6007
LeftArm  -9.99529 -4.99794 -22.6727
LeftForeArm  20.2448 -0.438223 -9.33931
LeftHand  0.0222657 6.36634 5.18835
RightShoulder  2.03109 5.33133 16.9642
RightArm  -41.989 32.1642 26.2588
RightForeArm  72.3149 7.26357 -1.78819
RightHand  0.974143 -7.65353 -46.2092
LeftUpLeg  -11.7315 1.34966 0.4203
LeftLeg  10.3876 1.69368 2.17751
LeftFoot  -5.99277 0.12332 -1.78056
LeftToes  -6.11857e-011 5.00151e-011 -2.22593e-011
214
root  -0.145142 39.9936 26.8053 -171.477 -4.91968 -179.412
RightUpLeg  -9.33727 -2.95712 -5.74825
RightLeg  9.14907 2.68796 -0.322394
RightFoot  -6.81865 -0.379347 8.4147
RightToes  5.38607e-012 1.2921e-014 -6.02303e-014
Spine  -9.48595 -1.73647 -0.51039
Spine1  12.7435 -0.0197031 -6.21276
HEad  10.1388 -48.01 6.21112
LeftShoulder1  1.25661 -1.72832 -18.6569
LeftArm  -9.85476 -4.77147 -23.0967
LeftForeArm  20.5236 -0.73908 -9.38414
LeftHand  0.0239246 6.2785 5.27315
RightShoulder  2.05642 5.1213 17.9269
RightArm  -40.182 30.8534 27.0071
RightForeArm  70.5673 6.88785 -1.05427
RightHand  1.62588 -9.65345 -41.7775
LeftUpLeg  -11.8258 1.29767 0.402194
LeftLeg  10.5346 1.56185 2.13339
LeftFoot  -6.02285 0.113727 -1.63734
LeftToes  -6.11857e-011 5.00151e-011 -2.22593e-011
215
root  -0.132203 39.9884 26.8298 -171.559 -4.98077 -179.421
RightUpLeg  -9.32905 -2.54114 -5.69314
RightLeg  9.26162 2.20837 -0.519683
RightFoot  -6.89614 -0.380364 8.47695
RightToes  5.38607e-012 1.2921e-014 -6.02303e-014
Spine  -9.45856 -1.68043 -0.670436
Spine1  12.8891 -0.00605511 -5.98542
HEad  9.90895 -47.659 6.16558
LeftShoulder1  1.24908 -1.68992 -18.701
LeftArm  -9.07409 -4.65777 -23.4246
LeftForeArm  21.1333 -1.09692 -9.67887
LeftHand  0.0227427 6.32485 5.33835
RightShoulder  2.09731 5.00126 18.8421
RightArm  -37.5475 29.6658 27.5949
RightForeArm  67.7095 4.1861 -0.470019
RightHand  1.8029 -10.6751 -37.8198
LeftUpLeg  -11.7977 1.26102 0.414017
LeftLeg  10.5796 1.47912 2.136
LeftFoot  -6.12016 0.128401 -1.87226
LeftToes  -6.11857e-011 5.00151e-011 -2.22593e-011
216
root  -0.125329 39.9856 26.8556 -171.586 -5.05606 -179.412
RightUpLeg  -9.35064 -2.56837 -5.69001
RightLeg  9.31223 2.22978 -0.504132
RightFoot  -6.87257 -0.358459 8.14001
RightToes  5.38607e-012 1.2921e-014 -6.02303e-014
Spine  -9.26262 -1.5838 -0.610903
Spine1  12.7395 0.0401529 -5.83842
HEad  9.61205 -47.3651 6.03786
LeftShoulder1  1.24713 -1.65859 -18.8287
LeftArm  -7.42514 -4.82804 -23.528
LeftForeArm  22.2207 -1.34117 -10.3149
LeftHand  0.0160794 6.40878 5.1652
RightShoulder  2.15124 4.98365 19.6035
RightArm  -34.7524 28.9756 27.7592
RightForeArm  68.3522 -0.983653 -0.332714
RightHand  1.83166 -11.2791 -34.7739
LeftUpLeg  -11.8982 1.14799 0.423303
LeftLeg  10.7313 1.4971 2.18007
LeftFoot  -6.11226 0.127912 -1.87216
LeftToes  -6.11857e-011 5.00151e-011 -2.22593e-011
217
root  -0.114807 39.9895 26.874 -171.538 -5.18091 -179.502
RightUpLeg  -9.40356 -2.77375 -5.74644
RightLeg  9.30954 2.16029 -0.485609
RightFoot  -6.83749 -0.376855 8.40831
RightToes  5.38607e-012 1.2921e-014 -6.02303e-014
Spine  -9.06753 -1.47854 -0.493557
Spine1  12.5726 0.112633 -5.75505
HEad  9.04729 -47.0191 5.97032
LeftShoulder1  1.2653 -1.69881 -19.0027
LeftArm  -6.69948 -4.83381 -23.7456
LeftForeArm  23.7414 -1.58553 -10.58
LeftHand  0.00871213 6.29233 4.78558
RightShoulder  2.17848 4.91525 20.1927
RightArm  -30.7894 28.2473 28.0633
RightForeArm  68.8053 -4.91988 0.950891
RightHand  1.7959 -10.9712 -35.8704
LeftUpLeg  -11.9562 1.0524 0.34577
LeftLeg  10.6512 1.48225 2.16692
LeftFoot  -5.94827 0.116795 -1.70741
LeftToes  -6.11857e-011 5.00151e-011 -2.22593e-011
